<svg xmlns="http://www.w3.org/2000/svg" viewBox="0 0 500 500">
  <rect width="500" height="500" fill="#f8fafc"/>
  <circle cx="450" cy="50" r="80" fill="#6366f1" opacity="0.1"/>
  <circle cx="50" cy="450" r="60" fill="#4f46e5" opacity="0.1"/>

  <rect x="50" y="400" width="400" height="15" rx="5" fill="#0f172a"/>
  
  <g id="character">
    <path d="M160 400 Q160 310 250 310 T340 400" fill="#0f172a"/>
    <circle cx="250" cy="260" r="45" fill="#ffbe9d"/>
    <path d="M205 260 Q205 210 250 210 T295 260" fill="#263238"/>
    <rect x="210" y="350" width="80" height="50" rx="4" fill="#6366f1"/>
    <rect x="220" y="360" width="60" height="30" fill="#ffffff" opacity="0.3"/>
  </g>

  <g id="monitor-laravel">
    <rect x="330" y="160" width="130" height="90" rx="8" fill="#1e293b" stroke="#6366f1" stroke-width="2"/>
    <text x="355" y="210" font-family="Arial, sans-serif" font-size="14" fill="#6366f1" font-weight="bold">LARAVEL</text>
  </g>

  <g id="monitor-figma">
    <rect x="40" y="190" width="100" height="70" rx="8" fill="#ffffff" stroke="#0f172a" stroke-width="2"/>
    <circle cx="75" cy="225" r="12" fill="#6366f1" opacity="0.8"/>
    <text x="90" y="230" font-family="Arial, sans-serif" font-size="10" fill="#0f172a" font-weight="bold">FIGMA</text>
  </g>

  <text x="50" y="450" font-family="Arial, sans-serif" font-size="18" fill="#0f172a" font-weight="bold">AHMAD REYNALDI</text>
  <text x="50" y="475" font-family="Arial, sans-serif" font-size="12" fill="#64748b">STMIK WICIDA | Semester 5</text>
</svg>
