<svg xmlns="http://www.w3.org/2000/svg" viewBox="0 0 500 500">
  <rect width="500" height="500" fill="#f8fafc"/>
  
  <circle cx="450" cy="50" r="80" fill="#6366f1" opacity="0.1"/>
  <circle cx="50" cy="450" r="60" fill="#4f46e5" opacity="0.1"/>

  <rect x="50" y="400" width="400" height="20" rx="10" fill="#0f172a"/>
  
  <g id="character">
    <path d="M150 400 Q150 300 250 300 T350 400" fill="#0f172a"/>
    <circle cx="250" cy="250" r="40" fill="#ffbe9d"/>
    <path d="M210 250 Q210 200 250 200 T290 250" fill="#263238"/>
    <rect x="200" y="340" width="100" height="60" rx="5" fill="#474af0"/>
    <rect x="210" y="350" width="80" height="40" fill="#ffffff" opacity="0.2"/>
  </g>

  <g id="monitor-laravel">
    <rect x="320" y="150" width="140" height="100" rx="8" fill="#1e293b" stroke="#6366f1" stroke-width="3"/>
    <text x="345" y="205" font-family="Montserrat, sans-serif" font-size="16" fill="#6366f1" font-weight="bold">LARAVEL</text>
    <rect x="335" y="215" width="110" height="4" rx="2" fill="#6366f1" opacity="0.5"/>
    <rect x="335" y="225" width="70" height="4" rx="2" fill="#6366f1" opacity="0.3"/>
  </g>

  <g id="monitor-figma">
    <rect x="60" y="180" width="100" height="70" rx="8" fill="#ffffff" stroke="#0f172a" stroke-width="2"/>
    <circle cx="95" cy="215" r="15" fill="#6366f1" opacity="0.8"/>
    <text x="115" y="220" font-family="Montserrat, sans-serif" font-size="10" fill="#0f172a" font-weight="bold">FIGMA</text>
  </g>

  <g id="labels">
    <rect x="340" y="430" width="110" height="25" rx="12" fill="#6366f1"/>
    <text x="352" y="447" font-family="Montserrat, sans-serif" font-size="10" fill="white" font-weight="bold">STMIK WICIDA</text>
    
    <text x="50" y="460" font-family="Montserrat, sans-serif" font-size="16" fill="#0f172a" font-weight="bold">AHMAD REYNALDI</text>
    <text x="50" y="480" font-family="Montserrat, sans-serif" font-size="12" fill="#64748b">Teknik Informatika | Semester 5</text>
  </g>

  <path d="M400 100 L410 110 M410 100 L400 110" stroke="#6366f1" stroke-width="3"/>
  <rect x="80" y="80" width="15" height="15" fill="#4f46e5" transform="rotate(45 87.5 87.5)"/>
</svg>
